# xmcd
#
# Track frame offsets: 
#        150
#        17078
#        31679
#        49351
#        60540
#        90778
#        103749
#        115841
#        130066
#        148788
#        169328
#        189281
#        209515
#        222477
#
# Disc length: 3192 seconds
#
# Revision: 0
# Processed by: cddbd v1.5.2PL0 Copyright (c) Steve Scherf et al.
# Submitted via: ExactAudioCopy v0.99pb5
#
DISCID=c40c760e
DTITLE=Matt Hill - On The Floor
DYEAR=2010
DGENRE=Blues
TTITLE0=Time Is Up
TTITLE1=Hellz Bellz
TTITLE2=Poor Circle
TTITLE3=Griddle Bread Boogie
TTITLE4=I Tried To Love A Crazy Woman
TTITLE5=Red Boots
TTITLE6=30 Years Old
TTITLE7=I'm Gonna Hit That Highway
TTITLE8=When I Get Drunk
TTITLE9=Stolen Bride Blues
TTITLE10=Gasoline
TTITLE11=Children (That Ain't Mine)
TTITLE12=Why The Fuck (Do You Think I Cuss)
TTITLE13=Poor Circle
EXTD=
EXTT0=
EXTT1=
EXTT2=
EXTT3=
EXTT4=
EXTT5=
EXTT6=
EXTT7=
EXTT8=
EXTT9=
EXTT10=
EXTT11=
EXTT12=
EXTT13=
PLAYORDER=
